<svg id="SvgjsSvg1001" width="288" height="288" xmlns="http://www.w3.org/2000/svg" version="1.1" xmlns:xlink="http://www.w3.org/1999/xlink" xmlns:svgjs="http://svgjs.com/svgjs"><defs id="SvgjsDefs1002"></defs><g id="SvgjsG1008"><svg xmlns="http://www.w3.org/2000/svg" viewBox="0 0 32 32" width="288" height="288"><g><path d="M27 7H5a3 3 0 0 0-3 3v12a3 3 0 0 0 3 3h22a3 3 0 0 0 3-3V10a3 3 0 0 0-3-3Zm1 15a1 1 0 0 1-1 1H5a1 1 0 0 1-1-1v-2h3a1 1 0 0 0 0-2H4v-4h3a1 1 0 0 0 0-2H4v-2a1 1 0 0 1 1-1h22a1 1 0 0 1 1 1v2h-3a1 1 0 0 0 0 2h3v4h-3a1 1 0 0 0 0 2h3Z" fill="#000000" class="svgShape color000000-1 selectable"></path><path d="M16.4 14.6h.6a1 1 0 0 0 0-2h-.6a3.4 3.4 0 1 0 0 6.8h.6a1 1 0 0 0 0-2h-.6a1.4 1.4 0 1 1 0-2.8Z" fill="#000000" class="svgShape color000000-2 selectable"></path></g></svg></g></svg>